<svg width="36" height="36" viewBox="0 0 36 36" fill="none" xmlns="http://www.w3.org/2000/svg">
<path d="M13.5 28.5C13 28.5 12.5312 28.3875 12.0938 28.1625C11.6563 27.9375 11.3 27.625 11.025 27.225L4.5 18L11.025 8.775C11.3 8.375 11.6563 8.0625 12.0938 7.8375C12.5312 7.6125 13 7.5 13.5 7.5H28.5C29.325 7.5 30.0313 7.79375 30.6188 8.38125C31.2063 8.96875 31.5 9.675 31.5 10.5V25.5C31.5 26.325 31.2063 27.0312 30.6188 27.6188C30.0313 28.2063 29.325 28.5 28.5 28.5H13.5ZM13.5 25.5H28.5V10.5H13.5L8.175 18L13.5 25.5ZM17.1 24L21 20.1L24.9 24L27 21.9L23.1 18L27 14.1L24.9 12L21 15.9L17.1 12L15 14.1L18.9 18L15 21.9L17.1 24Z" fill="white"/>
</svg>
